<svg xmlns="http://www.w3.org/2000/svg" width="211" height="68" fill="none">
  <path fill="#FF6060" d="M20.0745 34.6485 8.84014 46.1362v16.1199H0V0h8.84014v34.8338L42.359 0h10.1293L26.1521 27.9782 54.33 62.2561H44.0165l-23.942-27.6076ZM118.789 57.2534l3.5-6.6703c4.051 2.7793 10.313 4.8174 16.391 4.8174 7.919 0 11.05-2.4087 11.05-6.485 0-10.5613-29.652-1.4823-29.652-20.1962 0-8.5231 7.551-14.0817 19.522-14.0817 6.078 0 13.076 1.6675 17.128 4.2616l-3.683 6.6703c-4.236-2.7793-8.84-3.7058-13.445-3.7058-7.366 0-11.05 2.7793-11.05 6.485 0 11.1172 29.652 2.0382 29.652 20.3815 0 8.5232-7.736 13.8965-20.259 13.8965-7.551.1853-15.286-2.2235-19.154-5.3733ZM210.322 33.7221v28.534h-8.104v-6.2997c-2.762 4.2616-8.103 6.6703-15.47 6.6703-10.682 0-17.312-5.7439-17.312-13.8964 0-7.5968 4.788-13.7112 18.785-13.7112h13.445v-1.6676c0-7.2261-4.236-11.3024-12.524-11.3024-5.525 0-11.234 2.0381-14.918 5.0027l-3.499-6.485c4.789-3.891 11.787-6.1145 19.338-6.1145 13.076.1853 20.259 6.485 20.259 19.2698Zm-8.472 14.0817v-6.6703h-13.076c-8.472 0-10.866 3.3352-10.866 7.2262 0 4.6321 3.867 7.5967 10.313 7.5967 6.446.1853 11.603-2.594 13.629-8.1526ZM91.5322 49.8419v12.5995l5.3409-3.1499V46.6921l-5.3409 3.1498Z"/>
  <path fill="#FF6060" d="M106.266 34.4632 84.3496 21.6784l-12.1552-7.0408-11.971 20.9373.1842 19.6403L82.1396 68l2.21-1.297V48.1744l9.761-17.2316 9.9454 5.7438v18.5286l2.21-1.297v-19.455Z"/>
</svg>
